 <svg class="disegni-titoli" xmlns="http://www.w3.org/2000/svg" width="653" height="41" viewBox="0 0 653 41" fill="none">
            <path d="M5.46155 24.8201L5.88462 25.0299L6.3077 25.2389L6.73078 25.4469L7.15386 25.6539L7.57693 25.8598L8.00001 26.0648L8.42309 26.2686L8.84616 26.4713L9.26924 26.6727L9.69232 26.873L10.1154 27.072L10.5385 27.2697L10.9615 27.466L11.3846 27.661L11.8077 27.8546L12.2308 28.0467L12.6539 28.2372L13.0769 28.4263L13.5 28.6138L13.9231 28.7997L14.3462 28.9839L14.7692 29.1664L15.1923 29.3473L15.6154 29.5264L16.0385 29.7036L16.4615 29.8791L16.8846 30.0527L17.3077 30.2244L17.7308 30.3942L18.1539 30.562L18.5769 30.7278L19 30.8916L19.4231 31.0533L19.8462 31.2129L20.2692 31.3704L20.6923 31.5258L21.1154 31.6789L21.5385 31.8299L21.9615 31.9786L22.3846 32.125L22.8077 32.2691L23.2308 32.4109L23.6539 32.5503L24.0769 32.6873L24.5 32.8219L24.9231 32.9541L25.3462 33.0838L25.7692 33.211L26.1923 33.3357L26.6154 33.4578L27.0385 33.5774L27.4615 33.6943L27.8846 33.8087L28.3077 33.9204L28.7308 34.0294L29.1539 34.1358L29.5769 34.2394L30 34.3404L30.4231 34.4386L30.8462 34.534L31.2692 34.6266L31.6923 34.7164L32.1154 34.8035L32.5385 34.8876L32.9615 34.969L33.3846 35.0474L33.8077 35.123L34.2308 35.1956L34.6539 35.2654L35.0769 35.3322L35.5 35.3961L35.9231 35.457L36.3462 35.515L36.7692 35.57L37.1923 35.622L37.6154 35.6709L38.0385 35.7169L38.4615 35.7599L38.8846 35.7998L39.3077 35.8367L39.7308 35.8706L40.1539 35.9014L40.5769 35.9291L41 35.9538L41.4231 35.9754L41.8462 35.994L42.2692 36.0095L42.6923 36.0219L43.1154 36.0312L43.5385 36.0375L43.9615 36.0406L44.3846 36.0407L44.8077 36.0377L45.2308 36.0316L45.6539 36.0225L46.0769 36.0102L46.5 35.9949L46.9231 35.9765L47.3462 35.9551L47.7692 35.9305L48.1923 35.9029L48.6154 35.8723L49.0385 35.8386L49.4615 35.8018L49.8846 35.7621L50.3077 35.7193L50.7308 35.6735L51.1539 35.6246L51.5769 35.5728L52 35.518L52.4231 35.4602L52.8462 35.3994L53.2692 35.3357L53.6923 35.269L54.1154 35.1994L54.5385 35.1269L54.9615 35.0515L55.3846 34.9732L55.8077 34.892L56.2308 34.808L56.6539 34.7211L57.0769 34.6315L57.5 34.539L57.9231 34.4437L58.3462 34.3457L58.7692 34.2449L59.1923 34.1414L59.6154 34.0351L60.0385 33.9262L60.4615 33.8147L60.8846 33.7005L61.3077 33.5836L61.7308 33.4642L62.1539 33.3422L62.5769 33.2177L63 33.0906L63.4231 32.9611L63.8462 32.829L64.2692 32.6945L64.6923 32.5576L65.1154 32.4184L65.5385 32.2767L65.9615 32.1327L66.3846 31.9864L66.8077 31.8378L67.2308 31.687L67.6539 31.534L68.0769 31.3787L68.5 31.2213L68.9231 31.0618L69.3462 30.9002L69.7692 30.7365L70.1923 30.5708L70.6154 30.4031L71.0385 30.2334L71.4615 30.0618L71.8846 29.8884L72.3077 29.713L72.7308 29.5358L73.1539 29.3568L73.5769 29.1761L74 28.9936L74.4231 28.8095L74.8462 28.6237L75.2692 28.4363L75.6923 28.2473L76.1154 28.0568L76.5385 27.8648L76.9615 27.6713L77.3846 27.4764L77.8077 27.2802L78.2308 27.0825L78.6539 26.8836L79.0769 26.6834L79.5 26.482L79.9231 26.2794L80.3462 26.0756L80.7692 25.8707L81.1923 25.6648L81.6154 25.4579L82.0385 25.2499L82.4615 25.0411L82.8846 24.8313L83.3077 24.6206L83.7308 24.4092L84.1539 24.1969L84.5769 23.984L85 23.7703L85.4231 23.556L85.8462 23.3411L86.2692 23.1256L86.6923 22.9096L87.1154 22.6932L87.5385 22.4763L87.9615 22.259L88.3846 22.0413L88.8077 21.8234L89.2308 21.6051L89.6539 21.3867L90.0769 21.1681L90.5 20.9494L90.9231 20.7305L91.3462 20.5116L91.7692 20.2928L92.1923 20.0739L92.6154 19.8552L93.0385 19.6365L93.4615 19.4181L93.8846 19.1998L94.3077 18.9818L94.7308 18.7642L95.1539 18.5468L95.5769 18.3299L96 18.1134L96.4231 17.8973L96.8462 17.6818L97.2692 17.4668L97.6923 17.2524L98.1154 17.0387L98.5385 16.8257L98.9615 16.6134L99.3846 16.4018L99.8077 16.1911L100.231 15.9812L100.654 15.7722L101.077 15.5642L101.5 15.3571L101.923 15.1511L102.346 14.9461L102.769 14.7423L103.192 14.5395L103.615 14.338L104.038 14.1376L104.462 13.9386L104.885 13.7408L105.308 13.5444L105.731 13.3493L106.154 13.1557L106.577 12.9635L107 12.7729L107.423 12.5837L107.846 12.3962L108.269 12.2102L108.692 12.0259L109.115 11.8432L109.538 11.6623L109.962 11.4832L110.385 11.3058L110.808 11.1302L111.231 10.9565L111.654 10.7847L112.077 10.6148L112.5 10.4469L112.923 10.281L113.346 10.1171L113.769 9.95528L114.192 9.79554L114.615 9.63792L115.038 9.48246L115.462 9.32918L115.885 9.17812L116.308 9.0293L116.731 8.88276L117.154 8.73852L117.577 8.59662L118 8.45707L118.423 8.31992L118.846 8.18518L119.269 8.05289L119.692 7.92307L120.115 7.79574L120.538 7.67093L120.962 7.54866L121.385 7.42897L121.808 7.31186L122.231 7.19738L122.654 7.08553L123.077 6.97634L123.5 6.86984L123.923 6.76604L124.346 6.66496L124.769 6.56663L125.192 6.47106L125.615 6.37828L126.038 6.28829L126.462 6.20113L126.885 6.1168L127.308 6.03533L127.731 5.95672L128.154 5.881L128.577 5.80818L129 5.73828L129.423 5.6713L129.846 5.60726L130.269 5.54618L130.692 5.48807L131.115 5.43293L131.538 5.38078L131.962 5.33163L132.385 5.28549L132.808 5.24237L133.231 5.20227L133.654 5.16521L134.077 5.13119L134.5 5.10022L134.923 5.07231L135.346 5.04745L135.769 5.02566L136.192 5.00694L136.615 4.9913L137.038 4.97873L137.462 4.96923L137.885 4.96282L138.308 4.9595L138.731 4.95925L139.154 4.96209L139.577 4.96801L140 4.97701L140.423 4.98909L140.846 5.00425L141.269 5.02247L141.692 5.04378L142.115 5.06814L142.538 5.09557L142.962 5.12606L143.385 5.15959L143.808 5.19617L144.231 5.23578L144.654 5.27842L145.077 5.32408L145.5 5.37275L145.923 5.42442L146.346 5.47909L146.769 5.53673L147.192 5.59734L147.615 5.6609L148.038 5.72741L148.462 5.79685L148.885 5.86921L149.308 5.94447L149.731 6.02262L150.154 6.10363L150.577 6.18751L151 6.27422L151.423 6.36376L151.846 6.4561L152.269 6.55123L152.692 6.64912L153.115 6.74976L153.538 6.85312L153.962 6.9592L154.385 7.06796L154.808 7.17939L155.231 7.29346L155.654 7.41014L156.077 7.52943L156.5 7.65129L156.923 7.77569L157.346 7.90262L157.769 8.03205L158.192 8.16396L158.615 8.2983L159.038 8.43507L159.462 8.57424L159.885 8.71577L160.308 8.85963L160.731 9.00581L161.154 9.15427L161.577 9.30497L162 9.4579L162.423 9.61302L162.846 9.7703L163.269 9.9297L163.692 10.0912L164.115 10.2548L164.538 10.4204L164.962 10.588L165.385 10.7575L165.808 10.929L166.231 11.1024L166.654 11.2777L167.077 11.4548L167.5 11.6337L167.923 11.8143L168.346 11.9967L168.769 12.1807L169.192 12.3664L169.615 12.5538L170.038 12.7427L170.462 12.9331L170.885 13.125L171.308 13.3184L171.731 13.5132L172.154 13.7094L172.577 13.907L173 14.1059L173.423 14.306L173.846 14.5073L174.269 14.7099L174.692 14.9136L175.115 15.1184L175.538 15.3243L175.962 15.5312L176.385 15.7391L176.808 15.9479L177.231 16.1576L177.654 16.3682L178.077 16.5796L178.5 16.7918L178.923 17.0047L179.346 17.2184L179.769 17.4326L180.192 17.6475L180.615 17.863L181.038 18.0789L181.462 18.2954L181.885 18.5123L182.308 18.7295L182.731 18.9472L183.154 19.1651L183.577 19.3833L184 19.6017L184.423 19.8203L184.846 20.0391L185.269 20.2579L185.692 20.4768L186.115 20.6957L186.538 20.9145L186.962 21.1333L187.385 21.3519L187.808 21.5704L188.231 21.7886L188.654 22.0066L189.077 22.2243L189.5 22.4417L189.923 22.6587L190.346 22.8752L190.769 23.0913L191.192 23.3068L191.615 23.5218L192.038 23.7362L192.462 23.95L192.885 24.1631L193.308 24.3754L193.731 24.587L194.154 24.7978L194.577 25.0077L195 25.2167L195.423 25.4248L195.846 25.6319L196.269 25.838L196.692 26.0431L197.115 26.247L197.538 26.4498L197.962 26.6514L198.385 26.8518L198.808 27.0509L199.231 27.2488L199.654 27.4453L200.077 27.6404L200.5 27.8341L200.923 28.0263L201.346 28.2171L201.769 28.4063L202.192 28.594L202.615 28.78L203.038 28.9644L203.462 29.1472L203.885 29.3282L204.308 29.5074L204.731 29.6849L205.154 29.8606L205.577 30.0343L206 30.2063L206.423 30.3762L206.846 30.5443L207.269 30.7103L207.692 30.8743L208.115 31.0362L208.538 31.1961L208.962 31.3538L209.385 31.5094L209.808 31.6628L210.231 31.814L210.654 31.9629L211.077 32.1096L211.5 32.2539L211.923 32.396L212.346 32.5356L212.769 32.6729L213.192 32.8078L213.615 32.9402L214.038 33.0701L214.462 33.1976L214.885 33.3226L215.308 33.445L215.731 33.5648L216.154 33.682L216.577 33.7967L217 33.9086L217.423 34.018L217.846 34.1246L218.269 34.2286L218.692 34.3298L219.115 34.4283L219.538 34.524L219.962 34.6169L220.385 34.707L220.808 34.7944L221.231 34.8788L221.654 34.9605L222.077 35.0392L222.5 35.1151L222.923 35.1881L223.346 35.2581L223.769 35.3253L224.192 35.3895L224.615 35.4507L225.038 35.509L225.462 35.5643L225.885 35.6166L226.308 35.6659L226.731 35.7122L227.154 35.7555L227.577 35.7957L228 35.8329L228.423 35.8671L228.846 35.8983L229.269 35.9263L229.692 35.9514L230.115 35.9733L230.538 35.9922L230.962 36.008L231.385 36.0207L231.808 36.0304L232.231 36.037L232.654 36.0405L233.077 36.0409L233.5 36.0382L233.923 36.0324L234.346 36.0236L234.769 36.0117L235.192 35.9967L235.615 35.9786L236.038 35.9575L236.462 35.9333L236.885 35.906L237.308 35.8757L237.731 35.8423L238.154 35.8059L238.577 35.7664L239 35.724L239.423 35.6785L239.846 35.63L240.269 35.5784L240.692 35.5239L241.115 35.4665L241.538 35.406L241.962 35.3426L242.385 35.2762L242.808 35.2069L243.231 35.1347L243.654 35.0596L244.077 34.9816L244.5 34.9008L244.923 34.8171L245.346 34.7305L245.769 34.6411L246.192 34.5489L246.615 34.4539L247.038 34.3562L247.462 34.2557L247.885 34.1525L248.308 34.0465L248.731 33.9379L249.154 33.8266L249.577 33.7127L250 33.5962L250.423 33.477L250.846 33.3553L251.269 33.231L251.692 33.1042L252.115 32.9749L252.538 32.8432L252.962 32.7089L253.385 32.5723L253.808 32.4333L254.231 32.2918L254.654 32.1481L255.077 32.002L255.5 31.8537L255.923 31.7031L256.346 31.5503L256.769 31.3953L257.192 31.2381L257.615 31.0789L258.038 30.9175L258.462 30.754L258.885 30.5885L259.308 30.421L259.731 30.2516L260.154 30.0802L260.577 29.9069L261 29.7317L261.423 29.5547L261.846 29.3759L262.269 29.1954L262.692 29.0131L263.115 28.8291L263.538 28.6435L263.962 28.4563L264.385 28.2675L264.808 28.0771L265.231 27.8853L265.654 27.6919L266.077 27.4972L266.5 27.3011L266.923 27.1036L267.346 26.9048L267.769 26.7047L268.192 26.5034L268.615 26.3009L269.038 26.0973L269.462 25.8925L269.885 25.6867L270.308 25.4799L270.731 25.272L271.154 25.0633L271.577 24.8536L272 24.643L272.423 24.4317L272.846 24.2195L273.269 24.0066L273.692 23.793L274.115 23.5788L274.538 23.364L274.962 23.1485L275.385 22.9326L275.808 22.7162L276.231 22.4993L276.654 22.2821L277.077 22.0644L277.5 21.8465L277.923 21.6283L278.346 21.4099L278.769 21.1913L279.192 20.9726L279.615 20.7538L280.038 20.5349L280.462 20.316L280.885 20.0971L281.308 19.8784L281.731 19.6597L282.154 19.4413L282.577 19.223L283 19.005L283.423 18.7873L283.846 18.5699L284.269 18.3529L284.692 18.1363L285.115 17.9202L285.538 17.7046L285.962 17.4896L286.385 17.2752L286.808 17.0614L287.231 16.8482L287.654 16.6359L288.077 16.4242L288.5 16.2134L288.923 16.0035L289.346 15.7944L289.769 15.5862L290.192 15.3791L290.615 15.1729L291.038 14.9678L291.462 14.7638L291.885 14.561L292.308 14.3593L292.731 14.1588L293.154 13.9596L293.577 13.7617L294 13.5652L294.423 13.37L294.846 13.1762L295.269 12.9839L295.692 12.793L296.115 12.6037L296.538 12.416L296.962 12.2299L297.385 12.0454L297.808 11.8625L298.231 11.6814L298.654 11.5021L299.077 11.3245L299.5 11.1488L299.923 10.9749L300.346 10.8029L300.769 10.6328L301.192 10.4647L301.615 10.2985L302.038 10.1344L302.462 9.97236L302.885 9.8124L303.308 9.65455L303.731 9.49886L304.154 9.34534L304.577 9.19405L305 9.04499L305.423 8.89821L305.846 8.75372L306.269 8.61157L306.692 8.47178L307.115 8.33437L307.538 8.19937L307.962 8.06682L308.385 7.93673L308.808 7.80914L309.231 7.68405L309.654 7.56152L310.077 7.44155L310.5 7.32417L310.923 7.2094L311.346 7.09728L311.769 6.9878L312.192 6.88102L312.615 6.77693L313.038 6.67556L313.462 6.57694L313.885 6.48107L314.308 6.38799L314.731 6.29771L315.154 6.21025L315.577 6.12562L316 6.04384L316.423 5.96493L316.846 5.8889L317.269 5.81577L317.692 5.74556L318.115 5.67827L318.538 5.61392L318.962 5.55252L319.385 5.49409L319.808 5.43864L320.231 5.38617L320.654 5.3367L321.077 5.29024L321.5 5.2468L321.923 5.20639L322.346 5.169L322.769 5.13466L323.192 5.10336L323.615 5.07512L324.038 5.04995L324.462 5.02783L324.885 5.00878L325.308 4.99281L325.731 4.97991L326.154 4.9701L326.577 4.96336L327 4.9597L327.423 4.95913L327.846 4.96164L328.269 4.96723L328.692 4.97591L329.115 4.98766L329.538 5.00249L329.962 5.02039L330.385 5.04137L330.808 5.06541L331.231 5.09252L331.654 5.12267L332.077 5.15589L332.5 5.19214L332.923 5.23143L333.346 5.27375L333.769 5.31909L334.192 5.36744L334.615 5.4188L335.038 5.47314L335.462 5.53047L335.885 5.59076L336.308 5.65401L336.731 5.72021L337.154 5.78935L337.577 5.86139L338 5.93634L338.423 6.01418L338.846 6.0949L339.269 6.17847L339.692 6.26488L340.115 6.35412L340.538 6.44616L340.962 6.541L341.385 6.6386L341.808 6.73894L342.231 6.84202L342.654 6.94781L343.077 7.05629L343.5 7.16743L343.923 7.28122L344.346 7.39763L344.769 7.51664L345.192 7.63823L345.615 7.76237L346.038 7.88903L346.462 8.0182L346.885 8.14984L347.308 8.28393L347.731 8.42044L348.154 8.55935L348.577 8.70063L349 8.84425L349.423 8.99018L349.846 9.1384L350.269 9.28887L350.692 9.44156L351.115 9.59645L351.538 9.7535L351.962 9.91268L352.385 10.074L352.808 10.2373L353.231 10.4027L353.654 10.5701L354.077 10.7394L354.5 10.9107L354.923 11.0839L355.346 11.259L355.769 11.4359L356.192 11.6146L356.615 11.7951L357.038 11.9772L357.462 12.1611L357.885 12.3466L358.308 12.5338L358.731 12.7225L359.154 12.9128L359.577 13.1046L360 13.2978L360.423 13.4925L360.846 13.6885L361.269 13.886L361.692 14.0847L362.115 14.2847L362.538 14.4859L362.962 14.6883L363.385 14.8919L363.808 15.0966L364.231 15.3024L364.654 15.5092L365.077 15.7169L365.5 15.9257L365.923 16.1353L366.346 16.3458L366.769 16.5571L367.192 16.7693L367.615 16.9821L368.038 17.1956L368.462 17.4099L368.885 17.6247L369.308 17.8401L369.731 18.056L370.154 18.2724L370.577 18.4892L371 18.7064L371.423 18.924L371.846 19.142L372.269 19.3601L372.692 19.5785L373.115 19.7971L373.538 20.0159L373.962 20.2347L374.385 20.4536L374.808 20.6724L375.231 20.8913L375.654 21.1101L376.077 21.3287L376.5 21.5472L376.923 21.7655L377.346 21.9835L377.769 22.2012L378.192 22.4186L378.615 22.6357L379.038 22.8522L379.462 23.0684L379.885 23.284L380.308 23.499L380.731 23.7135L381.154 23.9273L381.577 24.1405L382 24.3529L382.423 24.5646L382.846 24.7755L383.269 24.9855L383.692 25.1946L384.115 25.4028L384.538 25.61L384.962 25.8162L385.385 26.0213L385.808 26.2254L386.231 26.4283L386.654 26.6301L387.077 26.8306L387.5 27.0299L387.923 27.2278L388.346 27.4245L388.769 27.6197L389.192 27.8136L389.615 28.006L390.038 28.1969L390.462 28.3863L390.885 28.5741L391.308 28.7603L391.731 28.9449L392.154 29.1278L392.577 29.309L393 29.4885L393.423 29.6661L393.846 29.842L394.269 30.016L394.692 30.1881L395.115 30.3583L395.538 30.5265L395.962 30.6928L396.385 30.857L396.808 31.0191L397.231 31.1792L397.654 31.3372L398.077 31.493L398.5 31.6466L398.923 31.798L399.346 31.9472L399.769 32.0941L400.192 32.2387L400.615 32.381L401.038 32.5209L401.462 32.6584L401.885 32.7936L402.308 32.9263L402.731 33.0565L403.154 33.1842L403.577 33.3094L404 33.4321L404.423 33.5522L404.846 33.6697L405.269 33.7846L405.692 33.8969L406.115 34.0065L406.538 34.1134L406.962 34.2177L407.385 34.3192L407.808 34.4179L408.231 34.514L408.654 34.6072L409.077 34.6976L409.5 34.7852L409.923 34.87L410.346 34.9519L410.769 35.031L411.192 35.1072L411.615 35.1805L412.038 35.2508L412.462 35.3183L412.885 35.3828L413.308 35.4443L413.731 35.5029L414.154 35.5585L414.577 35.6112L415 35.6608L415.423 35.7074L415.846 35.751L416.269 35.7916L416.692 35.8291L417.115 35.8636L417.538 35.8951L417.962 35.9235L418.385 35.9488L418.808 35.9711L419.231 35.9903L419.654 36.0065L420.077 36.0195L420.5 36.0295L420.923 36.0364L421.346 36.0402L421.769 36.041L422.192 36.0386L422.615 36.0332L423.038 36.0247L423.462 36.0131L423.885 35.9984L424.308 35.9807L424.731 35.9599L425.154 35.936L425.577 35.909L426 35.879L426.423 35.846L426.846 35.8099L427.269 35.7708L427.692 35.7286L428.115 35.6834L428.538 35.6352L428.962 35.584L429.385 35.5299L429.808 35.4727L430.231 35.4126L430.654 35.3495L431.077 35.2834L431.5 35.2144L431.923 35.1426L432.346 35.0678L432.769 34.9901L433.192 34.9095L433.615 34.8261L434.038 34.7398L434.462 34.6507L434.885 34.5588L435.308 34.4642L435.731 34.3667L436.154 34.2665L436.577 34.1636L437 34.0579L437.423 33.9496L437.846 33.8386L438.269 33.7249L438.692 33.6087L439.115 33.4898L439.538 33.3683L439.962 33.2443L440.385 33.1178L440.808 32.9888L441.231 32.8573L441.654 32.7233L442.077 32.5869L442.5 32.4481L442.923 32.307L443.346 32.1635L443.769 32.0177L444.192 31.8696L444.615 31.7192L445.038 31.5666L445.462 31.4119L445.885 31.2549L446.308 31.0959L446.731 30.9347L447.154 30.7715L447.577 30.6062L448 30.4389L448.423 30.2696L448.846 30.0984L449.269 29.9253L449.692 29.7504L450.115 29.5736L450.538 29.395L450.962 29.2146L451.385 29.0325L451.808 28.8487L452.231 28.6633L452.654 28.4762L453.077 28.2876L453.5 28.0974L453.923 27.9057L454.346 27.7125L454.769 27.5179L455.192 27.3219L455.615 27.1246L456.038 26.9259L456.462 26.726L456.885 26.5248L457.308 26.3225L457.731 26.119L458.154 25.9143L458.577 25.7086L459 25.5019L459.423 25.2942L459.846 25.0855L460.269 24.8759L460.692 24.6654L461.115 24.4541L461.538 24.2421L461.962 24.0293L462.385 23.8157L462.808 23.6016L463.231 23.3868L463.654 23.1714L464.077 22.9555L464.5 22.7392L464.923 22.5224L465.346 22.3051L465.769 22.0876L466.192 21.8697L466.615 21.6515L467.038 21.4331L467.462 21.2145L467.885 20.9958L468.308 20.777L468.731 20.5581L469.154 20.3392L469.577 20.1204L470 19.9016L470.423 19.6829L470.846 19.4644L471.269 19.2462L471.692 19.0281L472.115 18.8104L472.538 18.5929L472.962 18.3759L473.385 18.1593L473.808 17.9431L474.231 17.7275L474.654 17.5124L475.077 17.2979L475.5 17.084L475.923 16.8708L476.346 16.6584L476.769 16.4467L477.192 16.2358L477.615 16.0257L478.038 15.8165L478.462 15.6083L478.885 15.401L479.308 15.1948L479.731 14.9896L480.154 14.7854L480.577 14.5825L481 14.3807L481.423 14.1801L481.846 13.9807L482.269 13.7827L482.692 13.586L483.115 13.3906L483.538 13.1967L483.962 13.0042L484.385 12.8132L484.808 12.6238L485.231 12.4359L485.654 12.2495L486.077 12.0649L486.5 11.8819L486.923 11.7006L487.346 11.521L487.769 11.3433L488.192 11.1673L488.615 10.9932L489.038 10.821L489.462 10.6507L489.885 10.4824L490.308 10.3161L490.731 10.1517L491.154 9.98947L491.577 9.82928L492 9.67121L492.423 9.51528L492.846 9.36154L493.269 9.21L493.692 9.0607L494.115 8.91368L494.538 8.76895L494.962 8.62655L495.385 8.4865L495.808 8.34884L496.231 8.21359L496.654 8.08077L497.077 7.95042L497.5 7.82256L497.923 7.69721L498.346 7.57441L498.769 7.45416L499.192 7.33651L499.615 7.22146L500.038 7.10905L500.462 6.9993L500.885 6.89222L501.308 6.78785L501.731 6.68619L502.154 6.58728L502.577 6.49112L503 6.39774L503.423 6.30716L503.846 6.2194L504.269 6.13447L504.692 6.05238L505.115 5.97317L505.538 5.89683L505.962 5.8234L506.385 5.75287L506.808 5.68527L507.231 5.62061L507.654 5.5589L508.077 5.50015L508.5 5.44438L508.923 5.3916L509.346 5.34181L509.769 5.29504L510.192 5.25127L510.615 5.21053L511.038 5.17282L511.462 5.13816L511.885 5.10654L512.308 5.07798L512.731 5.05247L513.154 5.03003L513.577 5.01066L514 4.99436L514.423 4.98114L514.846 4.97099L515.269 4.96393L515.692 4.95995L516.115 4.95905L516.538 4.96123L516.962 4.96649L517.385 4.97484L517.808 4.98627L518.231 5.00077L518.654 5.01835L519.077 5.039L519.5 5.06271L519.923 5.08949L520.346 5.11933L520.769 5.15221L521.192 5.18815L521.615 5.22711L522.038 5.26911L522.462 5.31413L522.885 5.36217L523.308 5.4132L523.731 5.46723L524.154 5.52424L524.577 5.58422L525 5.64716L525.423 5.71305L525.846 5.78186L526.269 5.8536L526.692 5.92825L527.115 6.00579L527.538 6.08619L527.962 6.16946L528.385 6.25558L528.808 6.34451L529.231 6.43626L529.654 6.5308L530.077 6.6281L530.5 6.72816L530.923 6.83095L531.346 6.93645L531.769 7.04465L532.192 7.15551L532.615 7.26902L533.038 7.38515L533.462 7.50389L533.885 7.6252L534.308 7.74907L534.731 7.87546L535.154 8.00437L535.577 8.13574L536 8.26958L536.423 8.40584L536.846 8.54449L537.269 8.68552L537.692 8.82889L538.115 8.97458L538.538 9.12256L538.962 9.27279L539.385 9.42525L539.808 9.5799L540.231 9.73672L540.654 9.89568L541.077 10.0567L541.5 10.2199L541.923 10.385L542.346 10.5522L542.769 10.7214L543.192 10.8925L543.615 11.0655L544.038 11.2403L544.462 11.417L544.885 11.5955L545.308 11.7758L545.731 11.9578L546.154 12.1415L546.577 12.3269L547 12.5139L547.423 12.7024L547.846 12.8925L548.269 13.0841L548.692 13.2772L549.115 13.4718L549.538 13.6677L549.962 13.8649L550.385 14.0635L550.808 14.2634L551.231 14.4645L551.654 14.6668L552.077 14.8702L552.5 15.0748L552.923 15.2805L553.346 15.4872L553.769 15.6948L554.192 15.9035L554.615 16.113L555.038 16.3234L555.462 16.5347L555.885 16.7467L556.308 16.9595L556.731 17.1729L557.154 17.3871L557.577 17.6018L558 17.8172L558.423 18.033L558.846 18.2494L559.269 18.4662L559.692 18.6834L560.115 18.9009L560.538 19.1188L560.962 19.337L561.385 19.5553L561.808 19.7739L562.231 19.9926L562.654 20.2114L563.077 20.4303L563.5 20.6492L563.923 20.8681L564.346 21.0868L564.769 21.3055L565.192 21.524L565.615 21.7423L566.038 21.9604L566.462 22.1781L566.885 22.3956L567.308 22.6126L567.731 22.8293L568.154 23.0454L568.577 23.2611L569 23.4762L569.423 23.6908L569.846 23.9047L570.269 24.1179L570.692 24.3304L571.115 24.5422L571.538 24.7531L571.962 24.9632L572.385 25.1724L572.808 25.3807L573.231 25.588L573.654 25.7944L574.077 25.9996L574.5 26.2038L574.923 26.4068L575.346 26.6087L575.769 26.8094L576.192 27.0088L576.615 27.2069L577.038 27.4037L577.462 27.5991L577.885 27.7931L578.308 27.9856L578.731 28.1767L579.154 28.3663L579.577 28.5543L580 28.7407L580.423 28.9254L580.846 29.1085L581.269 29.2899L581.692 29.4695L582.115 29.6474L582.538 29.8234L582.962 29.9976L583.385 30.1699L583.808 30.3403L584.231 30.5087L584.654 30.6752L585.077 30.8396L585.5 31.002L585.923 31.1623L586.346 31.3205L586.769 31.4765L587.192 31.6304L587.615 31.7821L588.038 31.9315L588.462 32.0786L588.885 32.2235L589.308 32.366L589.731 32.5062L590.154 32.644L590.577 32.7793L591 32.9123L591.423 33.0428L591.846 33.1708L592.269 33.2962L592.692 33.4192L593.115 33.5396L593.538 33.6574L593.962 33.7725L594.385 33.8851L594.808 33.995L595.231 34.1022L595.654 34.2067L596.077 34.3085L596.5 34.4076L596.923 34.5039L597.346 34.5974L597.769 34.6881L598.192 34.7761L598.615 34.8611L599.038 34.9434L599.462 35.0227L599.885 35.0992L600.308 35.1728L600.731 35.2435L601.154 35.3113L601.577 35.3761L602 35.4379L602.423 35.4968L602.846 35.5528L603.269 35.6057L603.692 35.6557L604.115 35.7026L604.538 35.7465L604.962 35.7874L605.385 35.8253L605.808 35.8601L606.231 35.8919L606.654 35.9206L607.077 35.9463L607.5 35.9689L607.923 35.9884L608.346 36.0049L608.769 36.0183L609.192 36.0286L609.615 36.0358L610.038 36.04L610.462 36.041L610.885 36.039L611.308 36.0339L611.731 36.0257L612.154 36.0145L612.577 36.0001L613 35.9827L613.423 35.9622L613.846 35.9387L614.269 35.912L614.692 35.8824L615.115 35.8497L615.538 35.8139L615.962 35.7751L616.385 35.7332L616.808 35.6884L617.231 35.6405L617.654 35.5896L618.077 35.5358L618.5 35.4789L618.923 35.4191L619.346 35.3563L619.769 35.2906L620.192 35.2219L620.615 35.1503L621.038 35.0758L621.462 34.9985L621.885 34.9182L622.308 34.8351L622.731 34.7491L623.154 34.6603L623.577 34.5687L624 34.4743L624.423 34.3772L624.846 34.2773L625.269 34.1746L625.692 34.0693L626.115 33.9612L626.538 33.8505L626.962 33.7371L627.385 33.6211L627.808 33.5025L628.231 33.3813L628.654 33.2576L629.077 33.1314L629.5 33.0026L629.923 32.8713L630.346 32.7376L630.769 32.6015L631.192 32.463L631.615 32.3221L632.038 32.1788L632.462 32.0333L632.885 31.8854L633.308 31.7353L633.731 31.5829L634.154 31.4284L634.577 31.2717L635 31.1129L635.423 30.9519L635.846 30.7889L636.269 30.6238L636.692 30.4567L637.115 30.2877L637.538 30.1167L637.962 29.9438L638.385 29.769L638.808 29.5924L639.231 29.414L639.654 29.2338L640.077 29.0519L640.5 28.8683L640.923 28.683L641.346 28.4962L641.769 28.3077L642.192 28.1176L642.615 27.9261L643.038 27.7331L643.462 27.5386L643.885 27.3428L644.308 27.1456L644.731 26.9471L645.154 26.7473L645.577 26.5463L646 26.344L646.423 26.1406L646.846 25.9361L647.269 25.7305L647.692 25.5239L648.115 25.3163" stroke="#81B316" stroke-width="9" stroke-miterlimit="10" stroke-linecap="round" stroke-linejoin="round"/>
          </svg>